<?xml version="1.0" encoding="UTF-8"?>
<svg id="Calque_1" xmlns="http://www.w3.org/2000/svg" version="1.1" viewBox="0 0 206 54">
  <!-- Generator: Adobe Illustrator 29.5.1, SVG Export Plug-In . SVG Version: 2.1.0 Build 141)  -->
  <defs>
    <style>
      .st0 {
        fill: navy;
      }
    </style>
  </defs>
  <path class="st0" d="M204.01,53.5c.83,0,1.5-.68,1.49-1.51h0s-.06-13.5-.06-13.5c0-.83-.68-1.5-1.51-1.49s-1.5.68-1.49,1.51l.05,12-12,.05c-.83,3.59,1.41,7.17,5,8s7.17-1.41,8-5l13.5-.06h-12.99ZM3.18,52.92C17.68,34.3,45.09,11.96,80.07,5.45c34.88-6.49,77.57,2.71,122.87,47.62l2.11-2.13C159.16,5.44,115.51-4.2,79.53,2.5,43.65,9.17,15.65,32.03.82,51.08l2.37,1.84Z"/>
</svg>