<?xml version="1.0" encoding="UTF-8"?>
<svg id="Calque_1" xmlns="http://www.w3.org/2000/svg" version="1.1" viewBox="0 0 206 54">
  <!-- Generator: Adobe Illustrator 29.5.1, SVG Export Plug-In . SVG Version: 2.1.0 Build 141)  -->
  <defs>
    <style>
      .st0 {
        fill: navy;
      }
    </style>
  </defs>
  <path class="st0" d="M204.01.58c.83,0,1.5.68,1.49,1.51h0s-.06,13.5-.06,13.5c0,.83-.68,1.5-1.51,1.49s-1.5-.68-1.49-1.51l.05-12-12-.05c-.83-3.59,1.41-7.17,5-8,3.59-.83,7.17,1.41,8,5h0l13.5.06h-12.99ZM3.18,1.16c14.5,18.62,41.9,40.96,76.89,47.47,34.88,6.49,77.57-2.71,122.87-47.62l2.11,2.13c-45.9,45.49-89.54,55.13-125.53,48.44C43.65,44.91,15.65,22.05.82,3.01c0,0,2.37-1.84,2.37-1.84Z"/>
</svg>