<?xml version="1.0" encoding="UTF-8"?>
<svg id="Calque_1" xmlns="http://www.w3.org/2000/svg" version="1.1" viewBox="0 0 70 60">
  <!-- Generator: Adobe Illustrator 29.5.1, SVG Export Plug-In . SVG Version: 2.1.0 Build 141)  -->
  <defs>
    <style>
      .st0 {
        fill: navy;
        fill-rule: evenodd;
      }
    </style>
  </defs>
  <path class="st0" d="M15.81,5.56v5.56h-6.77v11.12H2.26v11.09l-.49.09c-.61.12-1.32.69-1.58,1.29-.26.61-.26,3.37,0,3.98.25.59.96,1.17,1.58,1.29l.49.09v5.22c0,3.69.05,5.38.17,5.79.23.76,1.4,1.92,2.17,2.14.38.11,1.66.17,3.7.17,2.92,0,3.12.02,3.12.25,0,.5.6,1.98,1.12,2.78,1.04,1.58,2.49,2.68,4.38,3.31,1.08.36,3.44.36,4.51,0,2.67-.89,4.67-2.92,5.32-5.39l.25-.95h10.27c9.81,0,10.27.01,10.27.25,0,.5.6,1.98,1.12,2.78,1.04,1.58,2.49,2.68,4.38,3.31,1.08.36,3.44.36,4.51,0,2.67-.89,4.67-2.92,5.32-5.39l.25-.95h1.96c2.44,0,2.91-.13,3.83-1.04.45-.44.77-.91.88-1.27.28-.92.24-11.97-.04-13.04-.44-1.65-1.55-2.91-3.36-3.79l-1.05-.51-.67-3.98c-.37-2.19-.76-4.44-.88-5.02-.41-2.01-1.46-3.38-3.27-4.22l-.94-.44h-14.67l-.93.43c-.51.24-1.24.72-1.61,1.08l-.68.64h-3.34v-11.12h-6.77V0h-15.8v5.56ZM20.32,4.45v2.22h6.77V2.22h2.26v8.9h-11.29V2.22h2.26v2.22h0ZM24.83,3.34v1.11h-2.26v-2.22h2.26v1.11h0ZM13.55,15.57v2.22h6.77v-4.45h2.26v8.9h-11.29v-8.9h2.26v2.23ZM18.06,14.46v1.11h-2.26v-2.23h2.26v1.11h0ZM27.09,15.57v2.23h6.77v-4.45h2.26v8.9h-11.29v-8.9h2.26v2.23ZM31.61,14.46v1.11h-2.26v-2.23h2.26v1.11ZM59.28,22.41c.7.21,1.61.97,1.96,1.65.18.35.56,2.24,1.12,5.58.47,2.78.88,5.18.91,5.33.04.19.51.5,1.5.97.8.39,1.67.92,1.97,1.22.59.58.98,1.52.98,2.35v.53h-4.52v5.14l2.26,1.11,2.26,1.11v1.53c0,1.44-.02,1.56-.35,1.88-.33.33-.41.34-2.29.34h-1.95l-.17-.72c-.24-1-.88-2.29-1.49-3.01l-.52-.6v-14.6l-.58-3.08c-.32-1.69-.67-3.24-.77-3.44-.27-.52-.98-1.07-1.51-1.17-.25-.05-2.94-.06-5.98-.04-5.33.04-5.54.05-5.92.33-.21.16-.52.46-.68.67-.29.38-.29.5-.33,13.03l-.04,12.64h-2.25v-13.02c0-9.81.04-13.16.17-13.59.21-.71,1.39-1.91,2.08-2.13.71-.22,13.39-.24,14.13-.02ZM6.78,26.69v2.22h6.77v-4.45h2.26v8.9H4.52v-8.9h2.26v2.23h0ZM11.29,25.58v1.11h-2.26v-2.23h2.26v1.11h0ZM20.32,26.69v2.22h6.77v-4.45h2.26v8.9h-11.29v-8.9h2.26v2.23ZM24.83,25.58v1.11h-2.26v-2.23h2.26v1.11h0ZM33.86,26.69v2.22h6.77v4.45h-9.03v-8.9h2.26v2.23ZM40.72,24.69c-.05.12-.09.62-.09,1.11v.89h-4.51v-2.22h2.34c2.08,0,2.33.02,2.26.22ZM58.01,28.71c.21,1.07.39,2.05.39,2.18,0,.21-.26.24-2.52.28-2.3.04-2.57.07-2.92.33-1.15.84-1.31,2.08-.53,3.92.06.13-.49.17-2.48.17h-2.55v-8.9l5.11.04,5.11.04.38,1.95h0ZM58.7,34.49v1.12l-1.54-.05c-1.29-.04-1.61-.09-1.93-.33-.54-.4-.88-.89-.99-1.42l-.09-.45h4.55v1.12ZM40.64,36.7v1.11H2.26v-2.22h38.38s0,1.11,0,1.11ZM58.7,41.5c0,2.03-.02,3.68-.05,3.68s-.42-.13-.88-.3c-1.15-.41-3.58-.44-4.71-.06-2.8.94-4.67,2.9-5.42,5.65-.19.7-.21.23-.22-5.94v-6.71s11.28,0,11.28,0c0,0,0,3.69,0,3.68ZM40.64,45.6v5.56h-13.62l-.25-.95c-.65-2.47-2.65-4.5-5.32-5.39-1.08-.36-3.44-.36-4.51,0-1.89.63-3.34,1.72-4.38,3.31-.52.8-1.12,2.28-1.12,2.78,0,.23-.2.25-3.11.25h-3.11l-.35-.34c-.28-.28-.35-.48-.35-1.11v-.77l2.71-.04,2.71-.04.82-3.2c.45-1.76.82-3.24.82-3.3,0-.06-1.58-.1-3.52-.1h-3.53v-2.22h36.12v5.56ZM67.73,43.59v1.32l-1.13-.56-1.13-.56v-1.53h2.26s0,1.32,0,1.32ZM8.44,45.6l-.28,1.11h-3.63v-2.23h4.2l-.28,1.11h0ZM21.51,47.25c1.27.59,2.1,1.38,2.73,2.64.5.99.53,1.12.53,2.39s-.03,1.39-.53,2.39c-.64,1.27-1.45,2.05-2.76,2.67-.85.4-1.07.44-2.28.44s-1.43-.04-2.28-.44c-1.31-.61-2.13-1.4-2.76-2.67-.5-.99-.53-1.12-.53-2.38s.04-1.42.45-2.26c.57-1.18,1.37-2.04,2.43-2.6,1.11-.58,1.72-.72,3.02-.65.85.04,1.3.15,2,.47h0ZM57.63,47.25c1.27.59,2.1,1.38,2.73,2.64.5.99.53,1.12.53,2.39s-.03,1.39-.53,2.39c-.63,1.27-1.45,2.05-2.76,2.67-.85.4-1.07.44-2.28.44s-1.43-.04-2.28-.44c-1.31-.61-2.13-1.4-2.76-2.67-.5-.99-.53-1.12-.53-2.38s.04-1.42.45-2.26c.57-1.18,1.37-2.04,2.43-2.6,1.11-.58,1.72-.72,3.02-.65.85.04,1.3.15,2,.47h0ZM18.06,49.12c-.27.08-.81.47-1.2.85-1,.99-1.27,2.02-.88,3.33.23.76,1.4,1.92,2.17,2.14,1.32.38,2.38.11,3.38-.87,1.38-1.36,1.42-3.09.11-4.53-.91-1-2.23-1.34-3.57-.93ZM54.18,49.12c-.69.22-1.87,1.42-2.09,2.13-.39,1.3-.12,2.34.88,3.33.73.72,1.44,1.04,2.33,1.04s1.6-.32,2.33-1.04c1.38-1.36,1.42-3.09.11-4.53-.91-1-2.23-1.34-3.57-.93h0ZM19.97,51.51c.7.69.2,1.88-.78,1.88-.58,0-1.13-.54-1.13-1.11s.55-1.11,1.13-1.11c.27,0,.56.13.78.34ZM56.09,51.51c.22.22.35.5.35.77s-.13.56-.35.77c-.21.21-.49.33-.78.34-.28,0-.56-.13-.78-.34-.21-.2-.34-.48-.35-.77,0-.27.13-.56.35-.77.22-.22.51-.34.78-.34s.56.13.78.34h0Z"/>
</svg>