<?xml version="1.0" encoding="UTF-8"?>
<svg id="Calque_1" xmlns="http://www.w3.org/2000/svg" version="1.1" viewBox="0 0 70 70">
  <!-- Generator: Adobe Illustrator 29.5.1, SVG Export Plug-In . SVG Version: 2.1.0 Build 141)  -->
  <defs>
    <style>
      .st0 {
        fill: navy;
        fill-rule: evenodd;
      }
    </style>
  </defs>
  <path class="st0" d="M22.55.4l-.4.4v24.07l.33.38.33.38h24.38l.33-.38.33-.38v-13.37l-.31-.35c-.47-.53-1.05-.59-1.58-.14l-.44.37v12.01h-21.05V2.32h5.88v6.3l.33.34.34.34h7.95l.34-.34.33-.34V2.32h5.88v2.7c0,2.83.04,2.97.64,3.29.48.26.86.19,1.28-.24l.4-.4V.8l-.4-.4L47.05,0h-24.1l-.4.4h0ZM37.32,4.65v2.33h-4.65V2.32h4.65v2.32ZM27.54,14.13c-.57.26-.84.89-.6,1.46.09.23.28.47.42.55.14.07,1.5.13,3.03.13,2.74,0,2.79,0,3.08-.32.42-.46.4-1.18-.06-1.61-.34-.32-.41-.33-2.91-.36-1.93-.02-2.66.01-2.97.15ZM27.21,19c-.62.62-.39,1.62.42,1.9.65.23,3.72.19,4.28-.04.58-.24.81-.65.7-1.25-.15-.8-.41-.88-2.91-.88-2.03,0-2.25.02-2.5.27ZM57.08,25.19c-.23.2-.36.45-.37.72,0,.23.53,1.95,1.2,3.83,1.59,4.5,1.62,4.53,3.66,3.77.6-.23,1.04-.33,1.01-.24l-1.54,3.96c-.81,2.09-1.51,3.78-1.56,3.76-.74-.31-7.22-4.01-7.15-4.08.06-.05.5-.23.99-.4.96-.34,1.51-.8,1.5-1.28,0-.51-2.58-7.4-2.83-7.59-.63-.47-1.42-.28-1.76.42-.21.45-.2.49.84,3.36.58,1.6,1,2.96.94,3.02s-.88.37-1.8.69c-1.07.37-1.75.69-1.88.87-.27.38-.25,1.09.04,1.43.37.44,11.38,6.44,11.82,6.44.76,0,.94-.36,3.31-6.49,1.27-3.29,2.27-6.08,2.27-6.32,0-.49-.36-.94-.85-1.06-.19-.05-.99.16-2.08.55-.97.34-1.81.58-1.87.52-.06-.06-.55-1.34-1.09-2.84-1.04-2.9-1.31-3.35-2.05-3.35-.22,0-.56.14-.75.31ZM13.17,26.08c-.68.79-1.35,1.59-2.02,2.39-.68.81-1.28,1.47-1.34,1.47s-.74-.52-1.5-1.17c-.77-.64-1.54-1.2-1.71-1.25-.42-.1-.91.13-1.2.57-.21.33-.22.82-.07,6.81.15,5.84.18,6.49.41,6.8.14.19.4.4.59.46.24.09,2.15-.16,6.68-.86,6.77-1.05,6.82-1.06,7.01-1.86.14-.57-.15-.96-1.62-2.18l-1.44-1.2.36-.43c2.76-3.26,3.55-4.25,3.62-4.53.12-.45-.28-1.2-.72-1.35-.73-.25-.98-.04-3.53,3-2.28,2.72-2.47,2.99-2.47,3.48s.08.6.96,1.36c.53.45.94.83.92.83-.02,0-1.89.3-4.15.66l-4.12.65-.09-2.13c-.05-1.41-.08-2.81-.09-4.22v-2.1l.92.76c.94.78,1.39.92,1.95.63.39-.21,5.05-5.83,5.14-6.21.1-.38-.23-1.11-.56-1.23-.12-.05-.43-.08-.68-.08-.4,0-.57.12-1.25.92ZM30.69,30.69l-.33.34v6.3h-1.85c-2.39,0-2.8.18-2.8,1.24,0,.24.16.58.39.84,1.87,2.18,7.31,8.38,7.8,8.89.52.54.71.65,1.11.65s.6-.11,1.11-.65c.49-.51,5.93-6.71,7.8-8.89.23-.27.38-.61.38-.84,0-1.06-.41-1.24-2.8-1.24h-1.85v-6.3l-.33-.34c-.56-.56-1.44-.42-1.83.31-.22.41-.22,7.55,0,8.02.23.49.61.63,1.91.67l1.17.03-2.7,3.08c-1.49,1.69-2.77,3.08-2.86,3.08s-1.37-1.38-2.86-3.08l-2.7-3.08,1.17-.04c1.3-.04,1.69-.17,1.91-.67.22-.47.21-7.61,0-8.02-.38-.72-1.27-.87-1.83-.31ZM.54,48.03c-.52.4-.54.58-.54,8.09v7.33l.34.33.34.34h15l.3-.32.3-.32v-14.96l-.34-.34-.34-.33h-7.42c-5.62,0-7.48.05-7.64.17h0ZM4.65,52.56c0,1.31.06,2.55.14,2.74.25.66.84.78,3.63.73,2.43-.04,2.51-.05,2.86-.37l.35-.33v-5.15h2.32v11.62H2.33v-11.62h2.32v2.38ZM9.3,51.96v1.78l-1.13-.04-1.13-.04-.04-1.74-.04-1.74h2.33s0,1.78,0,1.78ZM54.07,50.51l-.34.34v15l.32.3.32.3h14.97l.33-.33.34-.34v-7.31c0-5.07-.05-7.42-.15-7.65-.11-.21-.28-.38-.49-.48-.23-.11-2.58-.15-7.65-.15h-7.31s-.34.33-.34.34ZM58.38,55.07v2.57l.35.33c.35.33.38.33,3.14.33,3.68,0,3.4.26,3.45-3.22l.04-2.59h2.31v11.62h-11.62v-11.62h2.32v2.57ZM63,54.24l-.04,1.74-1.13.04-1.13.04v-3.57h2.33l-.04,1.74h0ZM27.21,54c-.16.16-.28.36-.35.58-.04.17-.06,3.56-.04,7.53l.04,7.22.38.33.38.33h14.73l.38-.33.38-.33.04-7.22c.02-3.97,0-7.36-.04-7.53-.07-.22-.19-.42-.35-.58-.26-.26-.49-.27-7.79-.27s-7.53,0-7.79.27ZM31.47,58.57c.04,2.45.05,2.53.37,2.87l.33.35h5.65l.33-.35c.29-.31.33-.48.33-1.36s-.04-1.05-.33-1.36c-.2-.24-.5-.37-.81-.35-.54,0-1.11.44-1.11.84,0,.22-.13.25-1.23.25h-1.23v-3.42h7.11v11.62h-11.76v-11.62h2.31l.04,2.52h0Z"/>
</svg>