<?xml version="1.0" encoding="UTF-8"?>
<svg id="Calque_1" xmlns="http://www.w3.org/2000/svg" version="1.1" viewBox="0 0 70 70">
  <!-- Generator: Adobe Illustrator 29.5.1, SVG Export Plug-In . SVG Version: 2.1.0 Build 141)  -->
  <defs>
    <style>
      .st0 {
        fill: navy;
        fill-rule: evenodd;
      }
    </style>
  </defs>
  <path class="st0" d="M24.85.2c-.72.24-1.95,1.58-2.17,2.37-.14.48-.18,4.86-.18,18.18v17.54l-1.51.89c-.83.49-2.49,1.61-3.68,2.49-1.2.88-2.23,1.6-2.29,1.6s-.45-.52-.88-1.16c-.81-1.23-1.23-1.49-1.88-1.19-.33.16-9.86,7.11-11.5,8.4-1.34,1.05-1.67.38,5.5,11.13,6.46,9.68,6.49,9.72,7.3,9.5.52-.14,12.06-8.7,12.27-9.1.27-.52.24-.76-.25-1.56l-.44-.73.66-.44c2.02-1.34,4.75-1.7,8.26-1.08,2.76.49,5.15.47,7.11-.07,1.71-.47,25.53-9.55,26.52-10.12,1.43-.82,2.18-2.12,2.28-3.99.06-1.12.02-1.36-.34-2.2-.41-.97-1.49-2.21-2.11-2.41l-.32-.11v-17.47c0-13.27-.04-17.63-.18-18.11-.24-.85-1.46-2.13-2.27-2.38-.83-.25-39.14-.24-39.92.02ZM38.97,4.94v2.47h-14.12v-2.09c0-2.02.01-2.11.36-2.47l.36-.38h13.4v2.47h0ZM48.39,7.75v5.28l-1.52-1.57c-1.31-1.35-1.59-1.57-2.01-1.57s-.7.22-2.01,1.57l-1.52,1.57V2.47h7.06s0,5.28,0,5.28ZM64.5,2.85c.35.37.36.46.36,2.47v2.09h-14.12V2.47h13.4l.36.38h0ZM38.97,13.22q0,3.33.36,3.71c.23.25.53.38.83.38.41,0,.75-.29,2.58-2.2l2.11-2.19,2.11,2.19c1.83,1.91,2.17,2.2,2.58,2.2.31,0,.6-.13.83-.38q.36-.38.36-3.71v-3.33h14.12v27.79l-.48.11c-.26.06-1.44.48-2.61.94l-2.13.83h-4.17c-3.9,0-4.19-.02-4.53-.3-.61-.51-1.53-.73-7.55-1.85-7.96-1.47-7.87-1.46-10.52-1.45-2.57.01-4.81.35-6.88,1.02l-1.14.37V9.89h14.12v3.33h0ZM34.93,38.48c1.99.19,13.99,2.44,14.5,2.71.9.49,1.42,1.71,1.16,2.71-.3,1.18-1.18,1.88-2.33,1.86-.37,0-3.46-.53-6.85-1.17-3.4-.63-6.19-1.14-6.21-1.12-.08.08-.38,2.28-.32,2.34.17.18,12.82,2.44,13.62,2.43,1.67-.01,3.15-.99,3.97-2.61l.45-.89,6.03-2.3c5.29-2.02,6.11-2.29,6.69-2.22,1.97.23,2.73,2.8,1.25,4.24-.42.41-24.82,9.78-26.53,10.18-1.59.38-3.8.35-6.05-.06-3.9-.72-6.98-.27-9.75,1.45l-.8.5-3.65-5.48c-2.01-3.01-3.65-5.54-3.65-5.61,0-.18,4.02-3.13,5.41-3.96,2.69-1.61,6-2.69,9.13-2.98,1.8-.17,2.26-.17,3.92-.01ZM17.74,51.8c2.9,4.35,5.27,8,5.27,8.1s-1.62,1.38-3.6,2.84c-1.58,1.16-3.16,2.33-4.74,3.49l-1.13.83-5.31-7.99c-2.92-4.39-5.32-8.05-5.34-8.14-.03-.16,9.13-7.03,9.41-7.05.09,0,2.54,3.55,5.44,7.9Z"/>
</svg>